<svg xmlns="http://www.w3.org/2000/svg" overflow="visible" baseProfile="tiny" viewBox="0 0 973.7 321"  xmlns:v="https://vecta.io/nano"><path d="M196.5 0h.6v133.7l52-61.6c1.3-2 3.8-1.4 5.9-1.6l40.2.1-53.9 62.5 65.1 102.3H262L215 161c-6.1 6.2-11.8 12.9-17.9 19.3v55.1h-37.3V9.1L196.5 0zm321.6 1.6c2.1-.6 4.3-.6 6.5-.6v169c.3 12.6-1.2 25.7 3.6 37.7 2.4 6.3 7.4 11.6 13.9 13.8-4 8.7-12.5 14.9-22 16.3-8.3 1.4-18.1.7-24.2-5.8-7.5-8-8.4-19.6-8.6-30l-.1-192.8 30.9-7.6zM38.3 11.2c11.6-4.6 24.3-5.7 36.6-4.7 16.6.5 34.2 3.7 47.6 14.2l-11.8 34.4c-2.9-1.7-5.7-3.6-8.6-5.4-11.5-6.6-24.9-10.2-38.2-9.5-5.4.4-10.8 2-15 5.3-8 6.1-11.3 17.4-8.4 26.9 2.9 8.3 9.6 14.3 16.4 19.5 14.7 11.3 32.6 17.5 47.6 28.4 6 4.3 11.5 9.3 15.7 15.3 10.6 14.5 14 33.4 11.4 51-2.2 14.8-11 28-22.9 36.8-15.5 11.8-35.5 15.8-54.6 15.5-19.1 0-38.2-5.6-54.1-16.3v-.3l14.3-35.5c13.5 9.2 29 16.7 45.7 16.6 9.2-.2 19.2-1.2 26.5-7.3 5.7-4.6 7.7-12.4 7.1-19.5-.7-10.5-6.8-20.1-14.9-26.6-17.5-14.3-39.7-21.4-57.3-35.6C3 99.5-3.1 73.3 2.3 50.8c4.5-17.9 18.8-32.8 36-39.6z" fill="#05519c"/><path d="M583.5 8.6c6.5-1.5 13.7-.4 19.2 3.6 5.7 4.1 9.7 10.6 10.1 17.7.7 7.4-2.4 15-8.1 19.8-5.2 4.8-12.7 6.7-19.6 5.5-6.5-1-12.3-5-15.9-10.4-5.2-7.6-5.2-18.3-.2-26 3.3-4.9 8.5-8.9 14.5-10.2z" fill="#ff860d"/><path d="M686.2 86c8.4-10 20.8-16.1 33.6-17.6 18.7-2.5 39.5.8 53.7 14.2 13.7 12.5 19 31.6 19.2 49.7l.1 103.1-37.3.1-.1-85.4c0-10.4.3-21.1-3-31.1-2.1-7.1-7.1-13.4-14.1-16.2-9.2-3.6-20-4.1-29.2-.3-6.4 2.6-12.5 6.3-17.2 11.5-1 1.1-2.2 2.4-2 4.1v117.4h-37.4V70.7l26.7-.1c2.6 5 4.7 10.2 7 15.4zM303.3 70.6l38.7.1 38.8 101.5c1.6 4 2.9 8.2 4.8 12.1l39.2-113.6h38.7l-68 185.7c-2.8 8.1-6.7 16.1-13 22-16 15.3-38.7 21.6-60.4 21.6v-34c9.7-.2 19.6-.6 28.8-4.1 5.2-2 10.3-5.3 12.7-10.6 2.3-4.9 1.5-10.4.9-15.6-2-12.5-6.4-24.5-10.8-36.3L303.3 70.6zm252.3 0h58.3v164.8h-37.8V102.2h-20.4l-.1-31.6zm418 66.3c-1-16.1-6.7-32-17.4-44.2-9.8-11.6-23.5-19.7-38.3-22.9-18.6-4-38.9-2.9-56 6.1-17.6 9.4-31.8 25.3-38.7 44-6.4 17.9-6.9 37.5-3.9 56.1 3.1 18.8 12.8 36.9 28.5 48.1 15.2 11.2 34.7 14.9 53.2 14.2 19.1-.5 39.3-4 54.5-16.4-4.9-9.7-9.4-19.6-14.5-29.1-8.4 7.8-19.6 12.4-31 12.9-13.4 1.4-28-.4-38.7-9.1-9.7-7.5-14.2-19.9-14.8-31.9h114.2c1.9-9.1 3.7-18.4 2.9-27.8zm-115.7-.9c2.4-10.7 6.7-21.6 15.5-28.6 8-6.4 18.6-8.3 28.6-7.4 9.2.5 18.8 3.9 24.9 11.2 6 6.8 8.4 16 9.5 24.8h-78.5z" fill="#05519c"/><path d="M433.2 264.1c3.9-.1 7.8-.1 11.7 0l-.5 33.9c-.1 5.3 2.3 10.9 7.3 13.3 4.5 2.2 10.5 1.1 13.8-2.8 2.6-2.9 3.5-6.8 3.5-10.6v-33.4h12l-.3 34.4c-.1 5.4 2.6 11.4 8.1 13.2 5.2 1.8 11.1-1 13.6-5.8 2.3-4 1.8-8.9 1.8-13.3v-28.4c4.2-.2 8.5-.1 12.7 0l-.1 33.4c0 6.9-1.9 14.7-8 18.8-6.5 4.3-14.5 3.7-21.8 3.6-5.8-.3-10.4-4.6-12.6-9.7-2.1 3.1-4.2 6.5-7.7 8.1-2.6 1.6-5.8 1-8.8 1.1-3.3-.1-6.7.2-10 0-5.6-1-10.3-5.2-12.5-10.3-1.9-3.9-2.2-8.4-2.2-12.6v-32.9zm255.4 3.6c5-2.7 10.8-3.5 16.4-3.4l29.4.1c-.1 3.7-.1 7.4 0 11.1-10.8.4-21.6-.1-32.4.3-7.5.2-14.5 5.1-17.3 11.9-2.3 6.2.4 13.3 5.3 17.4 3.8 3.4 9 4.6 14 4.6h30.5v11.2h-33.8c-6.2-1.1-12.5-3.1-17.2-7.3-6.3-5.3-10.9-13.2-10.6-21.7-.1-10.2 6.8-19.6 15.7-24.2zm228.4 3.2c6.6-4.9 15-6.3 23-6.5l33-.1c.1 3.7.1 7.3.1 11-10.7 0-21.4-.2-32.1-.1-4.6.3-9.8.4-13.4 3.5-1.8 1.4-1 4 .8 5.1 4.6 3.1 10.3 2.9 15.6 3.1 8 .2 16.4 1.5 23.1 6.1 3.7 2.4 6.7 6.4 6.6 11 0 4.6-3.1 8.5-6.8 10.9-6.3 4.4-14.1 5.2-21.5 6.2H911l-.3-11.2 33.4-.1c4.4-.3 9.4-.6 12.9-3.7 1.5-1.2 1.1-3.5-.4-4.6-4.2-3.1-9.6-3.2-14.6-3.3-8.1-.1-16.6-1.1-23.5-5.5-3.6-2.3-7-5.9-7.2-10.5-.6-4.6 2.2-8.8 5.7-11.3zm-91.7-2.6c6.5-3.9 14.5-3.4 21.8-3.1 5.8.2 10.3 4.6 12.4 9.7 2.4-5 6.8-9.3 12.5-9.9 7.3-.9 15.8-.8 21.7 4.4 5.1 4.3 7 11.2 7 17.6v34.1H889l.4-33c.1-4.6-1.2-9.6-5-12.5-4.7-4-12.5-3.3-16.3 1.6-2.9 3.2-3.4 7.7-3.3 11.9v31.8h-12.1l.4-34.7c.3-6.3-4.3-13.2-11-13.3-6.9-.5-12.2 6-12.3 12.5-.3 11.8 0 23.7-.1 35.5h-12.6v-34.8c.1-6.8 2.3-14.1 8.2-17.8zM557 309.6c-7.7-.1-16.4-3.7-18.8-11.6l50.7-.1c3.5-16.2-10.9-32.4-26.9-33.4-13.9-1.8-28.8 6.5-33.5 19.8-3.5 10.2-.1 22.2 8.3 28.9 5 4.6 11.6 6.4 18.1 7.7h34.6v-11.2c-10.9-.1-21.7.1-32.5-.1zm11.7-31.3c3.5 1.8 5.7 5.2 7.3 8.7h-37.3c5.4-10.5 19.8-14.3 30-8.7zm93.4 11.5c-.3-8.9-5.3-17.5-13.1-21.8-6-3.6-13.1-4-19.9-3.8-5.9 0-11.8.1-17.7-.1v-18.6h-11.6l.1 75.4h39.5c6-1 12.5-2.3 16.6-7.1 5.6-6.5 6.4-15.7 6.1-24zm-11.7 4.3c-.2 4.5-1.2 9.5-4.7 12.7-2.8 2.6-6.9 3.1-10.6 3.1l-23.7-.1c.1-11.4-.2-22.8.2-34.1 7.5.1 15-.2 22.5-.1 4.4.1 9.2.9 12.3 4.3 3.6 3.7 4.1 9.2 4 14.2zm156.4-3c.1-6.2-.5-13.1-5.1-17.7-6.5-7-16.6-8.9-25.7-8.9-10.5 0-21-.3-31.5 0 0 3.7.1 7.5.2 11.3l31.3.1c5.6.2 11.7.3 16.3 3.9 2.2 1.8 2.5 4.7 3.1 7.3-12.6.4-25.6-1.3-37.7 2.8-4.8 1.6-9.8 4.1-12.1 8.8-2.7 5.8.2 13 5.3 16.5 6.2 4.5 14.2 4.9 21.6 5.9h34.2c.3-10 0-20 .1-30zm-25.7 18.6c-6.5 0-13.2.4-19.5-1.3-2.2-.7-4.9-1.9-5.2-4.5-.4-2.2 1.6-3.6 3.4-4.2 4.2-1.5 8.8-1.7 13.2-1.7h22.5l.1 11.5c-4.9.3-9.7.1-14.5.2z" fill="#ff860d"/></svg>